<?xml version="1.0"?><svg viewBox="0 0 45 45" xmlns="http://www.w3.org/2000/svg" xmlns:xlink="http://www.w3.org/1999/xlink"><clipPath id="a"><path d="m0 36h36v-36h-36z"/></clipPath><g clip-path="url(#a)" transform="matrix(1.25 0 0 -1.25 0 45)"><g fill="#ffcc4d" transform="translate(36 18)"><path d="m0 0c0-9.941-8.059-18-18-18-9.94 0-18 8.059-18 18 0 9.94 8.06 18 18 18 9.941 0 18-8.06 18-18"/></g><g fill="#f5f8fa" transform="translate(30 22.5)"><path d="m0 0c0-3.037-2.463-5.5-5.5-5.5-3.037 0-5.5 2.463-5.5 5.5 0 3.037 2.463 5.5 5.5 5.5 3.037 0 5.5-2.463 5.5-5.5"/></g><g fill="#f5f8fa" transform="translate(17 22.5)"><path d="m0 0c0-3.037-2.463-5.5-5.5-5.5-3.037 0-5.5 2.463-5.5 5.5 0 3.037 2.463 5.5 5.5 5.5 3.037 0 5.5-2.463 5.5-5.5"/></g><g fill="#664500" transform="translate(14 25.5)"><path d="m0 0c0-1.381-1.119-2.5-2.5-2.5-1.381 0-2.5 1.119-2.5 2.5 0 1.38 1.119 2.5 2.5 2.5 1.381 0 2.5-1.12 2.5-2.5"/></g><g fill="#664500" transform="translate(27 25.5)"><path d="m0 0c0-1.381-1.119-2.5-2.5-2.5-1.381 0-2.5 1.119-2.5 2.5 0 1.38 1.119 2.5 2.5 2.5 1.381 0 2.5-1.12 2.5-2.5"/></g><g fill="#664500" transform="translate(28.627 10.0889)"><path d="m0 0c-.241-.294-.612-.476-1.021-.459-5.499.218-8.274-3.04-8.389-3.179-.441-.528-1.229-.604-1.759-.166-.533.437-.612 1.217-.179 1.751.147.178 3.633 4.361 10.427 4.09.691-.024 1.229-.608 1.199-1.298-.01-.282-.114-.536-.278-.739"/></g></g></svg>